# OBJ generated by ONSHAPE BY PTC INC, 1.211 Units = meters
mtllib vertical_rail.mtl
g sw24_GPSsupport
v -0.050215 -0.065 -6.50521e-18 
v -0.050215 -0.065 -0.003 
v 0.050215 -0.065 -0.003 
v 0.050215 -0.065 -6.50521e-18 
v 0.050215 0.065 -0.003 
v 0.050215 0.065 6.50521e-18 
v -0.050215 0.065 -0.003 
v -0.050215 0.065 6.50521e-18 
vn 4.42901e-16 -1 -9.86203e-17 
vn 1 1.11022e-16 -9.19548e-19 
vn -4.42901e-16 1 9.86203e-17 
vn -1 -1.11022e-16 9.19548e-19 
vn 1.46069e-17 -1.02342e-16 1 
vn -1.46069e-17 1.02342e-16 -1 
usemtl 1.000000_0.949020_0.901961_0.000000_0.000000
o mesh0
f 1//1 2//1 3//1 
f 3//1 4//1 1//1 
o mesh1
f 4//2 3//2 5//2 
f 5//2 6//2 4//2 
o mesh2
f 6//3 5//3 7//3 
f 7//3 8//3 6//3 
o mesh3
f 8//4 7//4 2//4 
f 2//4 1//4 8//4 
o mesh4
f 8//5 1//5 4//5 
f 4//5 6//5 8//5 
o mesh5
f 5//6 3//6 2//6 
f 2//6 7//6 5//6 
g sw24_Tslot40x40x80
v -0.00290051 -0.00129139 -0.92557 
v -0.003175 -3.46945e-18 -0.92557 
v -0.003175 -3.46945e-18 -0.003 
v -0.00212449 -0.00235948 -0.92557 
v -0.00290051 -0.00129139 -0.003 
v -0.000981129 -0.0030196 -0.92557 
v -0.00212449 -0.00235948 -0.003 
v 0.000331878 -0.00315761 -0.92557 
v -0.000981129 -0.0030196 -0.003 
v 0.0015875 -0.00274963 -0.92557 
v 0.000331878 -0.00315761 -0.003 
v 0.00256863 -0.00186622 -0.92557 
v 0.0015875 -0.00274963 -0.003 
v 0.00310562 -0.00066012 -0.92557 
v 0.00256863 -0.00186622 -0.003 
v 0.00310562 0.00066012 -0.92557 
v 0.003175 -3.46945e-18 -0.92557 
v 0.003175 -3.46945e-18 -0.003 
v 0.00310562 -0.00066012 -0.003 
v 0.00256863 0.00186622 -0.92557 
v 0.00310562 0.00066012 -0.003 
v 0.0015875 0.00274963 -0.92557 
v 0.00256863 0.00186622 -0.003 
v 0.000331878 0.00315761 -0.92557 
v 0.0015875 0.00274963 -0.003 
v -0.000981129 0.0030196 -0.92557 
v 0.000331878 0.00315761 -0.003 
v -0.00212449 0.00235948 -0.92557 
v -0.000981129 0.0030196 -0.003 
v -0.00290051 0.00129139 -0.92557 
v -0.00212449 0.00235948 -0.003 
v -0.00290051 0.00129139 -0.003 
v 0.0055 -0.0155 -0.003 
v 0.00443934 -0.0159393 -0.003 
v 0.00411418 -0.016426 -0.003 
v -0.019074 -0.00411418 -0.003 
v -0.0195607 -0.00443934 -0.003 
v -0.0198858 -0.00492597 -0.003 
v -0.0055 -0.0155 -0.003 
v -0.004 -0.017 -0.003 
v -0.00411418 -0.016426 -0.003 
v 0.00492597 -0.0198858 -0.003 
v 0.004 -0.0185 -0.003 
v 0.00411418 -0.019074 -0.003 
v 0.004 -0.017 -0.003 
v 0.00492597 -0.0156142 -0.003 
v 0.00411418 0.016426 -0.003 
v 0.00443934 0.0159393 -0.003 
v 0.00492597 0.0156142 -0.003 
v -0.01 0.0155 -0.003 
v -0.00411418 0.019074 -0.003 
v -0.00443934 0.0195607 -0.003 
v -0.02 -0.0055 -0.003 
v -0.0185 -0.004 -0.003 
v -0.0155 -0.0055 -0.003 
v -0.017 -0.004 -0.003 
v -0.016426 -0.00411418 -0.003 
v -0.0156142 -0.00492597 -0.003 
v -0.00443934 -0.0159393 -0.003 
v -0.0055 -0.02 -0.003 
v -0.004 -0.0185 -0.003 
v -0.00492597 -0.0198858 -0.003 
v -0.00443934 -0.0195607 -0.003 
v 0.00443934 -0.0195607 -0.003 
v 0.0107071 -0.0152071 -0.003 
v 0.017 -0.02 -0.003 
v 0.0143107 -0.011 -0.003 
v 0.0155 -0.0055 -0.003 
v 0.017 -0.004 -0.003 
v 0.016426 -0.00411418 -0.003 
v 0.0055 0.0155 -0.003 
v 0.004 0.017 -0.003 
v 0.01 0.0155 -0.003 
v 0.00492597 0.0198858 -0.003 
v 0.00443934 0.0195607 -0.003 
v -0.00492597 0.0198858 -0.003 
v -0.00492597 0.0156142 -0.003 
v -0.00443934 0.0159393 -0.003 
v -0.00411418 0.016426 -0.003 
v -0.00602513 0.00902513 -0.003 
v -0.0107803 0.0137803 -0.003 
v -0.0181481 0.0197716 -0.003 
v -0.0137803 0.0107803 -0.003 
v -0.00902513 0.00602513 -0.003 
v -0.016426 0.00411418 -0.003 
v -0.0159393 0.00443934 -0.003 
v -0.0156142 0.00492597 -0.003 
v -0.0159393 -0.00443934 -0.003 
v -0.0148827 -0.0109239 -0.003 
v -0.0197716 -0.0181481 -0.003 
v -0.0191213 -0.0191213 -0.003 
v -0.0152071 -0.0107071 -0.003 
v -0.02 -0.017 -0.003 
v -0.0181481 -0.0197716 -0.003 
v -0.0140236 -0.0109429 -0.003 
v -0.0143107 -0.011 -0.003 
v 0.0055 -0.02 -0.003 
v 0.0145 -0.011 -0.003 
v 0.0181481 -0.0197716 -0.003 
v 0.0148827 -0.0109239 -0.003 
v 0.0197716 -0.0181481 -0.003 
v 0.02 -0.017 -0.003 
v 0.0159393 -0.00443934 -0.003 
v 0.02 -0.0055 -0.003 
v 0.0185 -0.004 -0.003 
v 0.0198858 -0.00492597 -0.003 
v 0.0195607 -0.00443934 -0.003 
v 0.019074 -0.00411418 -0.003 
v 0.0107803 0.0137803 -0.003 
v 0.00902513 0.00602513 -0.003 
v 0.0155 0.01 -0.003 
v 0.0185 0.004 -0.003 
v 0.019074 0.00411418 -0.003 
v 0.0152071 0.0107071 -0.003 
v 0.02 0.017 -0.003 
v 0.011 0.0143107 -0.003 
v 0.0055 0.02 -0.003 
v -0.004 0.0185 -0.003 
v -0.004 0.017 -0.003 
v -0.0055 0.0155 -0.003 
v -0.0109239 0.0148827 -0.003 
v -0.0107071 0.0152071 -0.003 
v -0.017 0.02 -0.003 
v -0.0109429 0.0140236 -0.003 
v -0.011 0.0143107 -0.003 
v -0.0148827 0.0109239 -0.003 
v -0.0145 0.011 -0.003 
v -0.0197716 0.0181481 -0.003 
v -0.02 0.017 -0.003 
v -0.0155 0.0055 -0.003 
v -0.017 0.004 -0.003 
v -0.0155 0.01 -0.003 
v -0.0198858 0.00492597 -0.003 
v -0.0195607 0.00443934 -0.003 
v -0.0145 -0.011 -0.003 
v -0.00902513 -0.00602513 -0.003 
v -0.0109239 -0.0148827 -0.003 
v -0.011 -0.0145 -0.003 
v -0.017 -0.02 -0.003 
v -0.00411418 -0.019074 -0.003 
v 0.00488964 -0.00826642 -0.003 
v 0.01 -0.0155 -0.003 
v 0.0103827 -0.0154239 -0.003 
v 0.0191213 -0.0191213 -0.003 
v 0.0137803 0.0107803 -0.003 
v 0.0109429 0.0140236 -0.003 
v 0.0195607 0.00443934 -0.003 
v 0.017 0.004 -0.003 
v 0.0156142 0.00492597 -0.003 
v 0.0159393 0.00443934 -0.003 
v 0.011 0.0145 -0.003 
v 0.0197716 0.0181481 -0.003 
v 0.0109239 0.0148827 -0.003 
v 0.0181481 0.0197716 -0.003 
v 0.017 0.02 -0.003 
v 0.004 0.0185 -0.003 
v 0.00411418 0.019074 -0.003 
v -0.011 0.0145 -0.003 
v -0.00488964 0.00826642 -0.003 
v -0.00355025 0.008 -0.003 
v -0.0140236 0.0109429 -0.003 
v -0.0143107 0.011 -0.003 
v -0.0191213 0.0191213 -0.003 
v -0.0185 0.004 -0.003 
v -0.019074 0.00411418 -0.003 
v -0.0155 -0.01 -0.003 
v -0.0154239 -0.0103827 -0.003 
v -0.0137803 -0.0107803 -0.003 
v -0.011 -0.0143107 -0.003 
v -0.0103827 -0.0154239 -0.003 
v -0.0107071 -0.0152071 -0.003 
v -0.01 -0.0155 -0.003 
v -0.00492597 -0.0156142 -0.003 
v 0.0140236 -0.0109429 -0.003 
v 0.0109429 -0.0140236 -0.003 
v 0.011 -0.0143107 -0.003 
v 0.0107803 -0.0137803 -0.003 
v 0.0137803 -0.0107803 -0.003 
v 0.00602513 -0.00902513 -0.003 
v 0.0143107 0.011 -0.003 
v 0.0145 0.011 -0.003 
v 0.00826642 0.00488964 -0.003 
v 0.0198858 0.00492597 -0.003 
v 0.0155 0.0055 -0.003 
v 0.0191213 0.0191213 -0.003 
v -0.0103827 0.0154239 -0.003 
v -0.00826642 0.00488964 -0.003 
v -0.008 0.00355025 -0.003 
v -0.02 0.0055 -0.003 
v -0.00826642 -0.00488964 -0.003 
v -0.008 -0.00355025 -0.003 
v -0.0107803 -0.0137803 -0.003 
v -0.00355025 -0.008 -0.003 
v 0.00355025 -0.008 -0.003 
v 0.011 -0.0145 -0.003 
v 0.0154239 -0.0103827 -0.003 
v 0.0152071 -0.0107071 -0.003 
v 0.0155 -0.01 -0.003 
v 0.0156142 -0.00492597 -0.003 
v 0.0140236 0.0109429 -0.003 
v 0.00488964 0.00826642 -0.003 
v 0.00355025 0.008 -0.003 
v 0.00602513 0.00902513 -0.003 
v -0.0055 0.02 -0.003 
v -0.0154239 0.0103827 -0.003 
v -0.0152071 0.0107071 -0.003 
v -0.0109429 -0.0140236 -0.003 
v -0.00488964 -0.00826642 -0.003 
v -0.00602513 -0.00902513 -0.003 
v 0.0109239 -0.0148827 -0.003 
v 0.008 0.00355025 -0.003 
v 0.016426 0.00411418 -0.003 
v 0.0154239 0.0103827 -0.003 
v 0.0107071 0.0152071 -0.003 
v 0.0103827 0.0154239 -0.003 
v 0.00826642 -0.00488964 -0.003 
v 0.008 -0.00355025 -0.003 
v 0.0148827 0.0109239 -0.003 
v 0.02 0.0055 -0.003 
v 0.00902513 -0.00602513 -0.003 
v -0.00411418 0.016426 -0.92557 
v -0.00443934 0.0159393 -0.92557 
v -0.00492597 0.0156142 -0.92557 
v 0.017 0.004 -0.92557 
v 0.016426 0.00411418 -0.92557 
v 0.0159393 0.00443934 -0.92557 
v -0.0155 0.01 -0.92557 
v -0.019074 0.00411418 -0.92557 
v -0.0195607 0.00443934 -0.92557 
v -0.0055 0.0155 -0.92557 
v -0.004 0.017 -0.92557 
v -0.01 0.0155 -0.92557 
v -0.00492597 0.0198858 -0.92557 
v -0.00443934 0.0195607 -0.92557 
v 0.00488964 0.00826642 -0.92557 
v 0.017 0.02 -0.92557 
v 0.0181481 0.0197716 -0.92557 
v 0.0148827 0.0109239 -0.92557 
v 0.0197716 0.0181481 -0.92557 
v 0.02 0.017 -0.92557 
v 0.0156142 0.00492597 -0.92557 
v 0.0155 0.01 -0.92557 
v 0.0195607 0.00443934 -0.92557 
v 0.019074 0.00411418 -0.92557 
v 0.0055 -0.0155 -0.92557 
v 0.004 -0.017 -0.92557 
v 0.00411418 -0.016426 -0.92557 
v -0.0198858 0.00492597 -0.92557 
v -0.0156142 0.00492597 -0.92557 
v -0.0159393 0.00443934 -0.92557 
v -0.016426 0.00411418 -0.92557 
v -0.0148827 0.0109239 -0.92557 
v -0.0152071 0.0107071 -0.92557 
v -0.02 0.017 -0.92557 
v -0.004 0.0185 -0.92557 
v -0.00411418 0.019074 -0.92557 
v 0.00411418 0.019074 -0.92557 
v 0.00443934 0.0195607 -0.92557 
v 0.00492597 0.0198858 -0.92557 
v 0.0107803 0.0137803 -0.92557 
v 0.0140236 0.0109429 -0.92557 
v 0.0137803 0.0107803 -0.92557 
v 0.00602513 0.00902513 -0.92557 
v 0.0107071 0.0152071 -0.92557 
v 0.0143107 0.011 -0.92557 
v 0.0145 0.011 -0.92557 
v 0.0191213 0.0191213 -0.92557 
v 0.0155 0.0055 -0.92557 
v 0.0185 0.004 -0.92557 
v 0.0198858 0.00492597 -0.92557 
v 0.00443934 -0.0159393 -0.92557 
v 0.0055 -0.02 -0.92557 
v 0.004 -0.0185 -0.92557 
v 0.00492597 -0.0198858 -0.92557 
v 0.00443934 -0.0195607 -0.92557 
v 0.00411418 -0.019074 -0.92557 
v -0.016426 -0.00411418 -0.92557 
v -0.0159393 -0.00443934 -0.92557 
v -0.0156142 -0.00492597 -0.92557 
v -0.0185 0.004 -0.92557 
v -0.017 0.004 -0.92557 
v -0.0155 0.0055 -0.92557 
v -0.0197716 0.0181481 -0.92557 
v -0.0181481 0.0197716 -0.92557 
v -0.011 0.0145 -0.92557 
v -0.011 0.0143107 -0.92557 
v -0.0109239 0.0148827 -0.92557 
v -0.017 0.02 -0.92557 
v -0.0055 0.02 -0.92557 
v 0.0055 0.02 -0.92557 
v 0.004 0.0185 -0.92557 
v 0.0055 0.0155 -0.92557 
v 0.004 0.017 -0.92557 
v 0.00411418 0.016426 -0.92557 
v 0.00492597 0.0156142 -0.92557 
v 0.0109429 0.0140236 -0.92557 
v 0.011 0.0143107 -0.92557 
v 0.02 0.0055 -0.92557 
v 0.0155 -0.0055 -0.92557 
v 0.0159393 -0.00443934 -0.92557 
v 0.016426 -0.00411418 -0.92557 
v 0.0152071 -0.0107071 -0.92557 
v 0.02 -0.017 -0.92557 
v 0.011 -0.0143107 -0.92557 
v -0.004 -0.0185 -0.92557 
v -0.00411418 -0.019074 -0.92557 
v -0.00443934 -0.0195607 -0.92557 
v -0.00602513 -0.00902513 -0.92557 
v -0.0107803 -0.0137803 -0.92557 
v -0.0155 -0.0055 -0.92557 
v -0.017 -0.004 -0.92557 
v -0.02 -0.0055 -0.92557 
v -0.0185 -0.004 -0.92557 
v -0.019074 -0.00411418 -0.92557 
v -0.0198858 -0.00492597 -0.92557 
v -0.0191213 0.0191213 -0.92557 
v -0.0143107 0.011 -0.92557 
v -0.0145 0.011 -0.92557 
v -0.00902513 0.00602513 -0.92557 
v -0.0103827 0.0154239 -0.92557 
v -0.0107071 0.0152071 -0.92557 
v 0.00443934 0.0159393 -0.92557 
v 0.011 0.0145 -0.92557 
v 0.0154239 0.0103827 -0.92557 
v 0.0152071 0.0107071 -0.92557 
v 0.0107803 -0.0137803 -0.92557 
v 0.00902513 -0.00602513 -0.92557 
v 0.019074 -0.00411418 -0.92557 
v 0.0195607 -0.00443934 -0.92557 
v 0.0198858 -0.00492597 -0.92557 
v 0.017 -0.004 -0.92557 
v 0.0185 -0.004 -0.92557 
v 0.0156142 -0.00492597 -0.92557 
v 0.011 -0.0145 -0.92557 
v 0.0197716 -0.0181481 -0.92557 
v 0.0109239 -0.0148827 -0.92557 
v 0.0181481 -0.0197716 -0.92557 
v 0.017 -0.02 -0.92557 
v -0.00492597 -0.0198858 -0.92557 
v -0.0055 -0.02 -0.92557 
v -0.0055 -0.0155 -0.92557 
v -0.004 -0.017 -0.92557 
v -0.00443934 -0.0159393 -0.92557 
v -0.00411418 -0.016426 -0.92557 
v -0.0181481 -0.0197716 -0.92557 
v -0.0195607 -0.00443934 -0.92557 
v -0.0154239 0.0103827 -0.92557 
v -0.0140236 0.0109429 -0.92557 
v -0.0137803 0.0107803 -0.92557 
v -0.0107803 0.0137803 -0.92557 
v -0.00355025 0.008 -0.92557 
v 0.00355025 0.008 -0.92557 
v 0.008 0.00355025 -0.92557 
v 0.008 -0.00355025 -0.92557 
v 0.0137803 -0.0107803 -0.92557 
v 0.0109429 -0.0140236 -0.92557 
v 0.02 -0.0055 -0.92557 
v 0.0191213 -0.0191213 -0.92557 
v 0.01 -0.0155 -0.92557 
v 0.00492597 -0.0156142 -0.92557 
v -0.00492597 -0.0156142 -0.92557 
v -0.011 -0.0143107 -0.92557 
v -0.011 -0.0145 -0.92557 
v -0.00488964 -0.00826642 -0.92557 
v -0.00355025 -0.008 -0.92557 
v -0.0137803 -0.0107803 -0.92557 
v -0.0148827 -0.0109239 -0.92557 
v -0.0145 -0.011 -0.92557 
v -0.02 0.0055 -0.92557 
v -0.00826642 0.00488964 -0.92557 
v -0.008 0.00355025 -0.92557 
v -0.0109429 0.0140236 -0.92557 
v -0.00488964 0.00826642 -0.92557 
v -0.00602513 0.00902513 -0.92557 
v 0.01 0.0155 -0.92557 
v 0.0103827 0.0154239 -0.92557 
v 0.0109239 0.0148827 -0.92557 
v 0.0140236 -0.0109429 -0.92557 
v 0.0143107 -0.011 -0.92557 
v 0.00826642 -0.00488964 -0.92557 
v -0.0109239 -0.0148827 -0.92557 
v -0.0107071 -0.0152071 -0.92557 
v -0.017 -0.02 -0.92557 
v -0.0109429 -0.0140236 -0.92557 
v -0.0140236 -0.0109429 -0.92557 
v -0.0143107 -0.011 -0.92557 
v -0.0197716 -0.0181481 -0.92557 
v -0.02 -0.017 -0.92557 
v -0.0191213 -0.0191213 -0.92557 
v -0.0155 -0.01 -0.92557 
v 0.00826642 0.00488964 -0.92557 
v 0.0145 -0.011 -0.92557 
v 0.0155 -0.01 -0.92557 
v 0.0154239 -0.0103827 -0.92557 
v 0.0107071 -0.0152071 -0.92557 
v 0.0103827 -0.0154239 -0.92557 
v -0.01 -0.0155 -0.92557 
v -0.0103827 -0.0154239 -0.92557 
v -0.00826642 -0.00488964 -0.92557 
v -0.008 -0.00355025 -0.92557 
v 0.00902513 0.00602513 -0.92557 
v 0.0148827 -0.0109239 -0.92557 
v 0.00488964 -0.00826642 -0.92557 
v 0.00355025 -0.008 -0.92557 
v 0.00602513 -0.00902513 -0.92557 
v -0.0152071 -0.0107071 -0.92557 
v -0.0154239 -0.0103827 -0.92557 
v -0.00902513 -0.00602513 -0.92557 
vn 0.913545 0.406737 0 
vn 1 4.66974e-16 0 
vn 0.669131 0.743145 0 
vn 0.913545 0.406737 0 
vn 0.309017 0.951057 0 
vn 0.669131 0.743145 0 
vn -0.104528 0.994522 0 
vn 0.309017 0.951057 0 
vn -0.5 0.866025 0 
vn -0.104528 0.994522 0 
vn -0.809017 0.587785 0 
vn -0.5 0.866025 0 
vn -0.978148 0.207912 0 
vn -0.809017 0.587785 0 
vn -0.978148 -0.207912 0 
vn -1 -5.89439e-16 0 
vn -0.978148 0.207912 0 
vn -0.809017 -0.587785 0 
vn -0.978148 -0.207912 0 
vn -0.5 -0.866025 0 
vn -0.809017 -0.587785 0 
vn -0.104528 -0.994522 0 
vn -0.5 -0.866025 0 
vn 0.309017 -0.951057 0 
vn -0.104528 -0.994522 0 
vn 0.669131 -0.743145 0 
vn 0.309017 -0.951057 0 
vn 0.913545 -0.406737 0 
vn 0.669131 -0.743145 0 
vn 0 0 1 
vn 0 0 -1 
vn -1 -2.22045e-16 0 
vn -0.92388 0.382683 0 
vn -0.707107 0.707107 0 
vn -0.382683 0.92388 0 
vn -2.83277e-16 1 0 
vn -1 -2.22045e-16 0 
vn 4.05742e-16 -1 0 
vn -0.382683 -0.92388 0 
vn -0.707107 -0.707107 0 
vn -0.92388 -0.382683 0 
vn -1 -4.66974e-16 0 
vn 2.22045e-16 -1 0 
vn 1 3.44509e-16 0 
vn 0.92388 -0.382683 0 
vn 0.707107 -0.707107 0 
vn 0.382683 -0.92388 0 
vn 4.05742e-16 -1 0 
vn 1 2.22045e-16 0 
vn 0.382683 -0.92388 0 
vn 2.83277e-16 -1 0 
vn 0.707107 -0.707107 0 
vn 0.382683 -0.92388 0 
vn 0.92388 -0.382683 0 
vn 0.707107 -0.707107 0 
vn 1 2.22045e-16 0 
vn 0.92388 -0.382683 0 
vn 2.22045e-16 -1 0 
vn -0.382683 -0.92388 0 
vn -0.707107 -0.707107 0 
vn 2.83277e-16 -1 0 
vn -0.382683 -0.92388 0 
vn -0.707107 -0.707107 0 
vn -0.92388 -0.382683 0 
vn -1 -3.44509e-16 0 
vn -0.707107 -0.707107 0 
vn -0.92388 -0.382683 0 
vn -1 -2.22045e-16 0 
vn -0.92388 0.382683 0 
vn -0.707107 0.707107 0 
vn -1 -3.44509e-16 0 
vn -0.92388 0.382683 0 
vn -0.707107 0.707107 0 
vn -0.382683 0.92388 0 
vn -4.05742e-16 1 0 
vn -0.707107 0.707107 0 
vn -0.382683 0.92388 0 
vn -2.22045e-16 1 0 
vn 0.92388 0.382683 0 
vn 1 4.66974e-16 0 
vn 0.707107 0.707107 0 
vn 0.92388 0.382683 0 
vn 0.382683 0.92388 0 
vn 0.707107 0.707107 0 
vn -4.05742e-16 1 0 
vn 0.382683 0.92388 0 
vn 1 2.22045e-16 0 
vn -2.83277e-16 1 0 
vn 0.382683 0.92388 0 
vn 0.707107 0.707107 0 
vn 0.92388 0.382683 0 
vn 1 3.44509e-16 0 
vn -2.22045e-16 1 0 
vn -1 -2.22045e-16 0 
vn -0.92388 0.382683 0 
vn -0.707107 0.707107 0 
vn -0.382683 0.92388 0 
vn -2.83277e-16 1 0 
vn -1 -2.22045e-16 0 
vn 4.05742e-16 -1 0 
vn -0.382683 -0.92388 0 
vn -0.707107 -0.707107 0 
vn -0.92388 -0.382683 0 
vn -1 -4.66974e-16 0 
vn 3.7289e-16 -1 0 
vn 1 3.44509e-16 0 
vn 0.92388 -0.382683 0 
vn 0.707107 -0.707107 0 
vn 0.382683 -0.92388 0 
vn 4.05742e-16 -1 0 
vn 1 2.22045e-16 0 
vn -2.83277e-16 1 0 
vn 0.382683 0.92388 0 
vn 0.707107 0.707107 0 
vn 0.92388 0.382683 0 
vn 1 3.44509e-16 0 
vn -2.22045e-16 1 0 
vn 0.92388 0.382683 0 
vn 1 4.66974e-16 0 
vn 0.707107 0.707107 0 
vn 0.92388 0.382683 0 
vn 0.382683 0.92388 0 
vn 0.707107 0.707107 0 
vn -4.05742e-16 1 0 
vn 0.382683 0.92388 0 
vn 1 2.22045e-16 0 
vn 0.92388 -0.382683 0 
vn 0.707107 -0.707107 0 
vn 1 2.22045e-16 0 
vn 0.92388 -0.382683 0 
vn 0.707107 -0.707107 0 
vn 0.382683 -0.92388 0 
vn 2.83277e-16 -1 0 
vn 0.707107 -0.707107 0 
vn 0.382683 -0.92388 0 
vn 2.22045e-16 -1 0 
vn -0.382683 -0.92388 0 
vn -0.707107 -0.707107 0 
vn 2.83277e-16 -1 0 
vn -0.382683 -0.92388 0 
vn -0.707107 -0.707107 0 
vn -0.92388 -0.382683 0 
vn -1 -3.44509e-16 0 
vn -0.707107 -0.707107 0 
vn -0.92388 -0.382683 0 
vn -1 -2.22045e-16 0 
vn -0.382683 0.92388 0 
vn -4.05742e-16 1 0 
vn -0.707107 0.707107 0 
vn -0.382683 0.92388 0 
vn -0.92388 0.382683 0 
vn -0.707107 0.707107 0 
vn -1 -3.44509e-16 0 
vn -0.92388 0.382683 0 
vn -2.22045e-16 1 0 
vn -1 -2.22045e-16 0 
vn -0.92388 0.382683 0 
vn -0.707107 0.707107 0 
vn -0.382683 0.92388 0 
vn -2.83277e-16 1 0 
vn -1 -2.22045e-16 0 
vn 4.05742e-16 -1 0 
vn -0.382683 -0.92388 0 
vn -0.707107 -0.707107 0 
vn -0.92388 -0.382683 0 
vn -1 -4.66974e-16 0 
vn 7.11991e-17 -1 0 
vn 1 3.45313e-15 0 
vn 0.92388 -0.382683 0 
vn 0.707107 -0.707107 0 
vn 0.382683 -0.92388 0 
vn 4.05742e-16 -1 0 
vn 1 3.7289e-16 0 
vn -2.83277e-16 1 0 
vn 0.382683 0.92388 0 
vn 0.707107 0.707107 0 
vn 0.92388 0.382683 0 
vn 1 3.44509e-16 0 
vn -2.22045e-16 1 0 
vn -1 -2.22045e-16 0 
vn -0.92388 0.382683 0 
vn -0.707107 0.707107 0 
vn -0.382683 0.92388 0 
vn -2.83277e-16 1 0 
vn -1 -2.22045e-16 0 
vn -0.382683 0.92388 0 
vn -4.05742e-16 1 0 
vn -0.707107 0.707107 0 
vn -0.382683 0.92388 0 
vn -0.92388 0.382683 0 
vn -0.707107 0.707107 0 
vn -1 -3.44509e-16 0 
vn -0.92388 0.382683 0 
vn -2.22045e-16 1 0 
vn 0.382683 0.92388 0 
vn 0.707107 0.707107 0 
vn -4.05742e-16 1 0 
vn 0.382683 0.92388 0 
vn 0.707107 0.707107 0 
vn 0.92388 0.382683 0 
vn 1 4.66974e-16 0 
vn 0.707107 0.707107 0 
vn 0.92388 0.382683 0 
vn 1 2.22045e-16 0 
vn 0.92388 -0.382683 0 
vn 0.707107 -0.707107 0 
vn 1 2.22045e-16 0 
vn 0.92388 -0.382683 0 
vn 0.707107 -0.707107 0 
vn 0.382683 -0.92388 0 
vn 2.83277e-16 -1 0 
vn 0.707107 -0.707107 0 
vn 0.382683 -0.92388 0 
vn 2.22045e-16 -1 0 
vn -0.92388 -0.382683 0 
vn -1 -3.44509e-16 0 
vn -0.707107 -0.707107 0 
vn -0.92388 -0.382683 0 
vn -0.382683 -0.92388 0 
vn -0.707107 -0.707107 0 
vn 2.83277e-16 -1 0 
vn -0.382683 -0.92388 0 
vn -1 -2.22045e-16 0 
vn 4.05742e-16 -1 0 
vn -0.382683 -0.92388 0 
vn -0.707107 -0.707107 0 
vn -0.92388 -0.382683 0 
vn -1 -4.66974e-16 0 
vn 2.22045e-16 -1 0 
vn 1 3.44509e-16 0 
vn 0.92388 -0.382683 0 
vn 0.707107 -0.707107 0 
vn 0.382683 -0.92388 0 
vn 4.05742e-16 -1 0 
vn 1 3.7289e-16 0 
vn -2.83277e-16 1 0 
vn 0.382683 0.92388 0 
vn 0.707107 0.707107 0 
vn 0.92388 0.382683 0 
vn 1 3.44509e-16 0 
vn -2.22045e-16 1 0 
vn -1 -2.22045e-16 0 
vn -0.92388 0.382683 0 
vn -0.707107 0.707107 0 
vn -0.382683 0.92388 0 
vn -2.83277e-16 1 0 
vn -1 -2.22045e-16 0 
vn 4.05742e-16 -1 0 
vn -0.382683 -0.92388 0 
vn -0.707107 -0.707107 0 
vn -0.92388 -0.382683 0 
vn -1 -4.66974e-16 0 
vn 2.22045e-16 -1 0 
vn -0.92388 -0.382683 0 
vn -1 -3.44509e-16 0 
vn -0.707107 -0.707107 0 
vn -0.92388 -0.382683 0 
vn -0.382683 -0.92388 0 
vn -0.707107 -0.707107 0 
vn 2.83277e-16 -1 0 
vn -0.382683 -0.92388 0 
vn -1 -2.22045e-16 0 
vn -0.92388 0.382683 0 
vn -0.707107 0.707107 0 
vn -1 -3.44509e-16 0 
vn -0.92388 0.382683 0 
vn -0.707107 0.707107 0 
vn -0.382683 0.92388 0 
vn -4.05742e-16 1 0 
vn -0.707107 0.707107 0 
vn -0.382683 0.92388 0 
vn -2.22045e-16 1 0 
vn 0.382683 0.92388 0 
vn 0.707107 0.707107 0 
vn -4.05742e-16 1 0 
vn 0.382683 0.92388 0 
vn 0.707107 0.707107 0 
vn 0.92388 0.382683 0 
vn 1 4.66974e-16 0 
vn 0.707107 0.707107 0 
vn 0.92388 0.382683 0 
vn 1 2.22045e-16 0 
vn 0.382683 -0.92388 0 
vn 2.83277e-16 -1 0 
vn 0.707107 -0.707107 0 
vn 0.382683 -0.92388 0 
vn 0.92388 -0.382683 0 
vn 0.707107 -0.707107 0 
vn 1 2.22045e-16 0 
vn 0.92388 -0.382683 0 
vn 2.22045e-16 -1 0 
vn 1 3.44509e-16 0 
vn 0.92388 -0.382683 0 
vn 0.707107 -0.707107 0 
vn 0.382683 -0.92388 0 
vn 4.05742e-16 -1 0 
vn 1 2.22045e-16 0 
vn -2.83277e-16 1 0 
vn 0.382683 0.92388 0 
vn 0.707107 0.707107 0 
vn 0.92388 0.382683 0 
vn 1 3.44509e-16 0 
vn -2.22045e-16 1 0 
o mesh6
f 9//7 10//8 11//8 
f 12//9 9//7 13//10 
f 14//11 12//9 15//12 
f 16//13 14//11 17//14 
f 18//15 16//13 19//16 
f 20//17 18//15 21//18 
f 22//19 20//17 23//20 
f 24//21 25//22 26//22 
f 27//23 26//22 25//22 
f 25//22 22//19 27//23 
f 28//24 24//21 29//25 
f 30//26 28//24 31//27 
f 32//28 30//26 33//29 
f 34//30 32//28 35//31 
f 36//32 34//30 37//33 
f 38//34 36//32 39//35 
f 10//8 38//34 40//34 
f 40//34 11//8 10//8 
f 39//35 40//34 38//34 
f 37//33 39//35 36//32 
f 35//31 37//33 34//30 
f 33//29 35//31 32//28 
f 31//27 33//29 30//26 
f 29//25 31//27 28//24 
f 26//22 29//25 24//21 
f 23//20 27//23 22//19 
f 21//18 23//20 20//17 
f 19//16 21//18 18//15 
f 17//14 19//16 16//13 
f 15//12 17//14 14//11 
f 13//10 15//12 12//9 
f 11//8 13//10 9//7 
o mesh7
f 41//36 42//36 43//36 
f 44//36 45//36 46//36 
f 47//36 48//36 49//36 
f 50//36 51//36 52//36 
f 41//36 53//36 51//36 
f 41//36 54//36 42//36 
f 55//36 56//36 57//36 
f 58//36 59//36 60//36 
f 61//36 62//36 44//36 
f 61//36 63//36 64//36 
f 65//36 63//36 66//36 
f 49//36 67//36 47//36 
f 47//36 68//36 69//36 
f 69//36 70//36 71//36 
f 52//36 72//36 50//36 
f 43//36 53//36 41//36 
f 73//36 74//36 75//36 
f 76//36 77//36 78//36 
f 79//36 80//36 55//36 
f 81//36 82//36 83//36 
f 60//36 84//36 58//36 
f 85//36 86//36 87//36 
f 39//36 88//36 89//36 
f 90//36 91//36 92//36 
f 93//36 94//36 95//36 
f 64//36 62//36 61//36 
f 66//36 96//36 65//36 
f 97//36 98//36 99//36 
f 97//36 100//36 101//36 
f 102//36 103//36 104//36 
f 69//36 48//36 47//36 
f 69//36 68//36 70//36 
f 51//36 105//36 41//36 
f 74//36 106//36 75//36 
f 74//36 107//36 108//36 
f 108//36 109//36 110//36 
f 78//36 111//36 76//36 
f 76//36 112//36 113//36 
f 114//36 115//36 116//36 
f 117//36 33//36 118//36 
f 119//36 120//36 121//36 
f 122//36 123//36 124//36 
f 57//36 79//36 55//36 
f 81//36 125//36 82//36 
f 58//36 126//36 59//36 
f 127//36 128//36 85//36 
f 129//36 130//36 131//36 
f 90//36 132//36 133//36 
f 89//36 90//36 39//36 
f 92//36 39//36 90//36 
f 90//36 134//36 135//36 
f 134//36 136//36 137//36 
f 138//36 139//36 93//36 
f 140//36 141//36 142//36 
f 65//36 64//36 63//36 
f 101//36 98//36 97//36 
f 104//36 143//36 102//36 
f 102//36 15//36 144//36 
f 102//36 145//36 146//36 
f 145//36 102//36 147//36 
f 71//36 148//36 69//36 
f 23//36 21//36 149//36 
f 105//36 150//36 41//36 
f 74//36 151//36 150//36 
f 108//36 106//36 74//36 
f 108//36 152//36 109//36 
f 113//36 77//36 76//36 
f 113//36 112//36 114//36 
f 153//36 154//36 117//36 
f 121//36 155//36 119//36 
f 156//36 157//36 158//36 
f 123//36 159//36 124//36 
f 123//36 160//36 161//36 
f 161//36 162//36 163//36 
f 81//36 164//36 80//36 
f 83//36 165//36 81//36 
f 58//36 127//36 126//36 
f 127//36 58//36 128//36 
f 131//36 90//36 129//36 
f 133//36 166//36 90//36 
f 39//36 167//36 88//36 
f 39//36 37//36 168//36 
f 90//36 169//36 91//36 
f 135//36 170//36 90//36 
f 134//36 171//36 136//36 
f 138//36 172//36 139//36 
f 142//36 173//36 140//36 
f 61//36 174//36 63//36 
f 101//36 175//36 174//36 
f 143//36 97//36 102//36 
f 144//36 176//36 102//36 
f 146//36 177//36 102//36 
f 147//36 178//36 179//36 
f 147//36 68//36 180//36 
f 67//36 181//36 47//36 
f 182//36 183//36 184//36 
f 185//36 182//36 186//36 
f 149//36 187//36 23//36 
f 150//36 105//36 74//36 
f 75//36 182//36 73//36 
f 108//36 107//36 152//36 
f 116//36 113//36 114//36 
f 154//36 188//36 189//36 
f 33//36 190//36 118//36 
f 155//36 191//36 119//36 
f 156//36 192//36 157//36 
f 161//36 159//36 123//36 
f 161//36 193//36 162//36 
f 163//36 125//36 81//36 
f 165//36 164//36 81//36 
f 168//36 37//36 35//36 
f 87//36 127//36 85//36 
f 131//36 194//36 58//36 
f 166//36 129//36 90//36 
f 168//36 167//36 39//36 
f 39//36 195//36 196//36 
f 170//36 169//36 90//36 
f 134//36 90//36 171//36 
f 95//36 138//36 93//36 
f 140//36 197//36 141//36 
f 174//36 61//36 101//36 
f 99//36 102//36 97//36 
f 15//36 198//36 144//36 
f 15//36 13//36 199//36 
f 15//36 102//36 200//36 
f 147//36 179//36 145//36 
f 47//36 180//36 68//36 
f 201//36 202//36 19//36 
f 184//36 203//36 182//36 
f 187//36 186//36 23//36 
f 73//36 151//36 74//36 
f 110//36 204//36 205//36 
f 110//36 112//36 206//36 
f 111//36 207//36 76//36 
f 154//36 208//36 188//36 
f 118//36 153//36 117//36 
f 119//36 156//36 120//36 
f 156//36 119//36 192//36 
f 124//36 154//36 122//36 
f 161//36 160//36 193//36 
f 79//36 81//36 80//36 
f 35//36 209//36 210//36 
f 35//36 117//36 211//36 
f 58//36 212//36 131//36 
f 89//36 132//36 90//36 
f 92//36 195//36 39//36 
f 137//36 213//36 214//36 
f 137//36 197//36 140//36 
f 173//36 172//36 140//36 
f 100//36 175//36 101//36 
f 199//36 198//36 15//36 
f 102//36 215//36 200//36 
f 180//36 178//36 147//36 
f 17//36 216//36 201//36 
f 17//36 200//36 217//36 
f 203//36 218//36 182//36 
f 186//36 187//36 185//36 
f 110//36 205//36 108//36 
f 76//36 206//36 112//36 
f 219//36 29//36 26//36 
f 153//36 208//36 154//36 
f 158//36 220//36 156//36 
f 123//36 221//36 119//36 
f 163//36 222//36 161//36 
f 81//36 223//36 163//36 
f 211//36 209//36 35//36 
f 130//36 194//36 131//36 
f 137//36 214//36 134//36 
f 138//36 140//36 172//36 
f 176//36 103//36 102//36 
f 177//36 215//36 102//36 
f 217//36 216//36 17//36 
f 185//36 183//36 182//36 
f 206//36 204//36 110//36 
f 23//36 224//36 225//36 
f 26//36 225//36 219//36 
f 189//36 226//36 154//36 
f 190//36 33//36 31//36 
f 119//36 227//36 123//36 
f 223//36 222//36 163//36 
f 84//36 212//36 58//36 
f 140//36 213//36 137//36 
f 46//36 61//36 44//36 
f 19//36 17//36 201//36 
f 21//36 19//36 202//36 
f 50//36 105//36 51//36 
f 26//36 27//36 225//36 
f 31//36 219//36 190//36 
f 122//36 221//36 123//36 
f 196//36 40//36 39//36 
f 196//36 199//36 11//36 
f 200//36 17//36 15//36 
f 218//36 73//36 182//36 
f 219//36 31//36 29//36 
f 23//36 186//36 228//36 
f 191//36 227//36 119//36 
f 11//36 40//36 196//36 
f 202//36 149//36 21//36 
f 228//36 224//36 23//36 
f 117//36 35//36 33//36 
f 13//36 11//36 199//36 
f 226//36 122//36 154//36 
f 225//36 27//36 23//36 
f 35//36 210//36 168//36 
o mesh8
f 229//37 230//37 231//37 
f 232//37 233//37 234//37 
f 235//37 236//37 237//37 
f 238//37 239//37 229//37 
f 240//37 241//37 242//37 
f 28//37 30//37 243//37 
f 244//37 245//37 246//37 
f 246//37 247//37 248//37 
f 234//37 249//37 232//37 
f 250//37 251//37 252//37 
f 253//37 254//37 255//37 
f 237//37 256//37 235//37 
f 257//37 258//37 259//37 
f 260//37 261//37 262//37 
f 238//37 263//37 239//37 
f 242//37 264//37 240//37 
f 265//37 266//37 267//37 
f 268//37 269//37 270//37 
f 243//37 271//37 28//37 
f 272//37 244//37 273//37 
f 246//37 274//37 244//37 
f 246//37 275//37 247//37 
f 276//37 277//37 232//37 
f 250//37 278//37 251//37 
f 255//37 279//37 253//37 
f 253//37 280//37 281//37 
f 282//37 283//37 284//37 
f 285//37 286//37 287//37 
f 235//37 288//37 236//37 
f 289//37 290//37 257//37 
f 262//37 291//37 260//37 
f 292//37 293//37 294//37 
f 295//37 292//37 296//37 
f 231//37 238//37 229//37 
f 240//37 297//37 241//37 
f 298//37 299//37 265//37 
f 298//37 300//37 301//37 
f 302//37 300//37 303//37 
f 269//37 304//37 305//37 
f 271//37 270//37 28//37 
f 274//37 273//37 244//37 
f 246//37 245//37 275//37 
f 249//37 276//37 232//37 
f 250//37 306//37 278//37 
f 307//37 308//37 309//37 
f 310//37 311//37 312//37 
f 281//37 254//37 253//37 
f 281//37 280//37 282//37 
f 313//37 314//37 315//37 
f 12//37 316//37 317//37 
f 318//37 319//37 285//37 
f 318//37 320//37 321//37 
f 322//37 320//37 323//37 
f 235//37 289//37 288//37 
f 289//37 235//37 290//37 
f 291//37 324//37 260//37 
f 292//37 325//37 326//37 
f 292//37 36//37 327//37 
f 292//37 295//37 293//37 
f 296//37 328//37 329//37 
f 296//37 297//37 240//37 
f 264//37 263//37 240//37 
f 301//37 299//37 298//37 
f 303//37 330//37 302//37 
f 305//37 331//37 269//37 
f 270//37 271//37 268//37 
f 273//37 269//37 272//37 
f 248//37 332//37 333//37 
f 248//37 306//37 250//37 
f 252//37 277//37 250//37 
f 334//37 18//37 335//37 
f 336//37 337//37 338//37 
f 307//37 339//37 340//37 
f 307//37 341//37 308//37 
f 311//37 342//37 312//37 
f 311//37 343//37 344//37 
f 344//37 345//37 346//37 
f 284//37 281//37 282//37 
f 315//37 347//37 313//37 
f 348//37 349//37 350//37 
f 349//37 351//37 352//37 
f 317//37 353//37 12//37 
f 321//37 319//37 318//37 
f 323//37 354//37 322//37 
f 259//37 289//37 257//37 
f 262//37 355//37 235//37 
f 324//37 292//37 260//37 
f 292//37 356//37 325//37 
f 327//37 357//37 292//37 
f 36//37 292//37 358//37 
f 296//37 329//37 295//37 
f 238//37 240//37 263//37 
f 359//37 360//37 32//37 
f 302//37 301//37 300//37 
f 268//37 304//37 269//37 
f 248//37 333//37 246//37 
f 276//37 250//37 277//37 
f 361//37 362//37 25//37 
f 363//37 364//37 334//37 
f 365//37 340//37 336//37 
f 309//37 339//37 307//37 
f 344//37 342//37 311//37 
f 344//37 366//37 345//37 
f 346//37 280//37 367//37 
f 279//37 368//37 253//37 
f 350//37 313//37 348//37 
f 349//37 369//37 351//37 
f 353//37 370//37 371//37 
f 12//37 372//37 316//37 
f 12//37 14//37 373//37 
f 12//37 353//37 374//37 
f 353//37 375//37 376//37 
f 322//37 321//37 320//37 
f 235//37 377//37 262//37 
f 326//37 260//37 292//37 
f 36//37 378//37 327//37 
f 36//37 38//37 379//37 
f 292//37 380//37 358//37 
f 240//37 328//37 296//37 
f 34//37 381//37 359//37 
f 34//37 358//37 382//37 
f 298//37 383//37 300//37 
f 244//37 384//37 383//37 
f 331//37 385//37 269//37 
f 250//37 332//37 248//37 
f 362//37 22//37 25//37 
f 364//37 386//37 387//37 
f 18//37 388//37 335//37 
f 340//37 365//37 307//37 
f 312//37 364//37 310//37 
f 344//37 343//37 366//37 
f 253//37 367//37 280//37 
f 352//37 350//37 349//37 
f 389//37 390//37 391//37 
f 353//37 392//37 370//37 
f 373//37 372//37 12//37 
f 353//37 393//37 374//37 
f 376//37 394//37 353//37 
f 375//37 395//37 396//37 
f 375//37 353//37 397//37 
f 396//37 320//37 398//37 
f 287//37 318//37 285//37 
f 379//37 38//37 10//37 
f 261//37 355//37 262//37 
f 379//37 378//37 36//37 
f 294//37 380//37 292//37 
f 382//37 381//37 34//37 
f 383//37 298//37 244//37 
f 272//37 384//37 244//37 
f 28//37 399//37 361//37 
f 362//37 20//37 22//37 
f 387//37 400//37 364//37 
f 335//37 363//37 334//37 
f 388//37 18//37 20//37 
f 365//37 401//37 307//37 
f 311//37 402//37 401//37 
f 346//37 403//37 344//37 
f 367//37 404//37 346//37 
f 373//37 14//37 16//37 
f 348//37 405//37 349//37 
f 391//37 406//37 405//37 
f 391//37 353//37 389//37 
f 317//37 392//37 353//37 
f 394//37 393//37 353//37 
f 397//37 395//37 375//37 
f 318//37 398//37 320//37 
f 10//37 407//37 408//37 
f 357//37 356//37 292//37 
f 32//37 34//37 359//37 
f 30//37 32//37 360//37 
f 385//37 272//37 269//37 
f 25//37 24//37 361//37 
f 28//37 270//37 409//37 
f 400//37 410//37 364//37 
f 20//37 362//37 388//37 
f 401//37 365//37 311//37 
f 404//37 403//37 346//37 
f 16//37 411//37 412//37 
f 16//37 334//37 413//37 
f 405//37 348//37 391//37 
f 371//37 389//37 353//37 
f 396//37 414//37 375//37 
f 398//37 415//37 396//37 
f 10//37 416//37 407//37 
f 358//37 34//37 36//37 
f 267//37 298//37 265//37 
f 409//37 399//37 28//37 
f 363//37 386//37 364//37 
f 310//37 402//37 311//37 
f 413//37 411//37 16//37 
f 390//37 406//37 391//37 
f 415//37 414//37 396//37 
f 9//37 374//37 416//37 
f 256//37 377//37 235//37 
f 361//37 24//37 28//37 
f 338//37 365//37 336//37 
f 347//37 348//37 313//37 
f 416//37 10//37 9//37 
f 360//37 243//37 30//37 
f 334//37 16//37 18//37 
f 374//37 9//37 12//37 
f 410//37 310//37 364//37 
f 10//37 408//37 379//37 
f 16//37 412//37 373//37 
o mesh9
f 262//38 137//38 136//39 
f 291//39 136//39 171//40 
f 324//40 171//40 90//41 
f 292//41 90//41 131//42 
f 131//42 296//42 292//41 
f 90//41 292//41 324//40 
f 171//40 324//40 291//39 
f 136//39 291//39 262//38 
o mesh10
f 137//43 262//43 377//43 
f 377//43 197//43 137//43 
o mesh11
f 288//44 172//44 173//45 
f 236//45 173//45 142//46 
f 237//46 142//46 141//47 
f 256//47 141//47 197//48 
f 197//48 377//48 256//47 
f 141//47 256//47 237//46 
f 142//46 237//46 236//45 
f 173//45 236//45 288//44 
o mesh12
f 172//49 288//49 289//49 
f 289//49 139//49 172//49 
o mesh13
f 290//50 138//50 95//51 
f 257//51 95//51 94//52 
f 258//52 94//52 93//53 
f 259//53 93//53 139//54 
f 139//54 289//54 259//53 
f 93//53 259//53 258//52 
f 94//52 258//52 257//51 
f 95//51 257//51 290//50 
o mesh14
f 138//55 290//55 235//55 
f 235//55 140//55 138//55 
o mesh15
f 260//56 326//57 135//57 
f 261//58 260//56 134//59 
f 355//60 261//58 214//61 
f 235//62 355//60 213//63 
f 213//63 140//62 235//62 
f 214//61 213//63 355//60 
f 134//59 214//61 261//58 
f 135//57 134//59 260//56 
o mesh16
f 135//64 326//64 325//64 
f 325//64 170//64 135//64 
o mesh17
f 356//65 357//66 91//66 
f 325//67 356//65 169//68 
f 169//68 170//67 325//67 
f 91//66 169//68 356//65 
o mesh18
f 91//69 357//69 327//69 
f 327//69 92//69 91//69 
o mesh19
f 378//70 379//71 196//71 
f 327//72 378//70 195//73 
f 195//73 92//72 327//72 
f 196//71 195//73 378//70 
o mesh20
f 196//74 379//74 408//74 
f 408//74 199//74 196//74 
o mesh21
f 407//75 416//76 144//76 
f 408//77 407//75 198//78 
f 198//78 199//77 408//77 
f 144//76 198//78 407//75 
o mesh22
f 144//79 416//79 374//79 
f 374//79 176//79 144//79 
o mesh23
f 393//80 394//81 104//81 
f 374//82 393//80 103//83 
f 103//83 176//82 374//82 
f 104//81 103//83 393//80 
o mesh24
f 104//84 394//84 376//84 
f 376//84 143//84 104//84 
o mesh25
f 415//85 398//86 174//86 
f 414//87 415//85 175//88 
f 375//89 414//87 100//90 
f 376//91 375//89 97//92 
f 97//92 143//91 376//91 
f 100//90 97//92 375//89 
f 175//88 100//90 414//87 
f 174//86 175//88 415//85 
o mesh26
f 174//93 398//93 318//93 
f 318//93 63//93 174//93 
o mesh27
f 319//94 64//94 65//95 
f 285//95 65//95 96//96 
f 286//96 96//96 66//97 
f 287//97 66//97 63//98 
f 63//98 318//98 287//97 
f 66//97 287//97 286//96 
f 96//96 286//96 285//95 
f 65//95 285//95 319//94 
o mesh28
f 64//99 319//99 321//99 
f 321//99 62//99 64//99 
o mesh29
f 320//100 61//100 46//101 
f 323//101 46//101 45//102 
f 354//102 45//102 44//103 
f 322//103 44//103 62//104 
f 62//104 321//104 322//103 
f 44//103 322//103 354//102 
f 45//102 354//102 323//101 
f 46//101 323//101 320//100 
o mesh30
f 61//105 320//105 396//105 
f 396//105 101//105 61//105 
o mesh31
f 391//106 147//106 102//107 
f 353//107 102//107 99//108 
f 397//108 99//108 98//109 
f 395//109 98//109 101//110 
f 101//110 396//110 395//109 
f 98//109 395//109 397//108 
f 99//108 397//108 353//107 
f 102//107 353//107 391//106 
o mesh32
f 147//111 391//111 348//111 
f 348//111 68//111 147//111 
o mesh33
f 313//112 69//112 148//113 
f 314//113 148//113 71//114 
f 315//114 71//114 70//115 
f 347//115 70//115 68//116 
f 68//116 348//116 347//115 
f 70//115 347//115 315//114 
f 71//114 315//114 314//113 
f 148//113 314//113 313//112 
o mesh34
f 69//117 313//117 350//117 
f 350//117 48//117 69//117 
o mesh35
f 349//118 47//118 181//119 
f 369//119 181//119 67//120 
f 351//120 67//120 49//121 
f 352//121 49//121 48//122 
f 48//122 350//122 352//121 
f 49//121 352//121 351//120 
f 67//120 351//120 369//119 
f 181//119 369//119 349//118 
o mesh36
f 47//123 349//123 405//123 
f 405//123 180//123 47//123 
o mesh37
f 389//124 371//125 146//125 
f 390//126 389//124 145//127 
f 406//128 390//126 179//129 
f 405//130 406//128 178//131 
f 178//131 180//130 405//130 
f 179//129 178//131 406//128 
f 145//127 179//129 390//126 
f 146//125 145//127 389//124 
o mesh38
f 146//132 371//132 370//132 
f 370//132 177//132 146//132 
o mesh39
f 392//133 317//134 200//134 
f 370//135 392//133 215//136 
f 215//136 177//135 370//135 
f 200//134 215//136 392//133 
o mesh40
f 200//137 317//137 316//137 
f 316//137 217//137 200//137 
o mesh41
f 372//138 373//139 201//139 
f 316//140 372//138 216//141 
f 216//141 217//140 316//140 
f 201//139 216//141 372//138 
o mesh42
f 201//142 373//142 412//142 
f 412//142 202//142 201//142 
o mesh43
f 411//143 413//144 187//144 
f 412//145 411//143 149//146 
f 149//146 202//145 412//145 
f 187//144 149//146 411//143 
o mesh44
f 187//147 413//147 334//147 
f 334//147 185//147 187//147 
o mesh45
f 364//148 312//149 184//149 
f 334//150 364//148 183//151 
f 183//151 185//150 334//150 
f 184//149 183//151 364//148 
o mesh46
f 184//152 312//152 342//152 
f 342//152 203//152 184//152 
o mesh47
f 404//153 367//154 150//154 
f 403//155 404//153 151//156 
f 344//157 403//155 73//158 
f 342//159 344//157 218//160 
f 218//160 203//159 342//159 
f 73//158 218//160 344//157 
f 151//156 73//158 403//155 
f 150//154 151//156 404//153 
o mesh48
f 150//161 367//161 253//161 
f 253//161 41//161 150//161 
o mesh49
f 254//162 53//162 43//163 
f 255//163 43//163 42//164 
f 279//164 42//164 54//165 
f 368//165 54//165 41//166 
f 41//166 253//166 368//165 
f 54//165 368//165 279//164 
f 42//164 279//164 255//163 
f 43//163 255//163 254//162 
o mesh50
f 53//167 254//167 281//167 
f 281//167 51//167 53//167 
o mesh51
f 280//168 105//168 50//169 
f 282//169 50//169 72//170 
f 283//170 72//170 52//171 
f 284//171 52//171 51//172 
f 51//172 281//172 284//171 
f 52//171 284//171 283//170 
f 72//170 283//170 282//169 
f 50//169 282//169 280//168 
o mesh52
f 105//173 280//173 346//173 
f 346//173 74//173 105//173 
o mesh53
f 311//174 110//174 109//175 
f 343//175 109//175 152//176 
f 366//176 152//176 107//177 
f 345//177 107//177 74//178 
f 74//178 346//178 345//177 
f 107//177 345//177 366//176 
f 152//176 366//176 343//175 
f 109//175 343//175 311//174 
o mesh54
f 110//179 311//179 365//179 
f 365//179 112//179 110//179 
o mesh55
f 340//180 113//180 116//181 
f 336//181 116//181 115//182 
f 337//182 115//182 114//183 
f 338//183 114//183 112//184 
f 112//184 365//184 338//183 
f 114//183 338//183 337//182 
f 115//182 337//182 336//181 
f 116//181 336//181 340//180 
o mesh56
f 113//185 340//185 339//185 
f 339//185 77//185 113//185 
o mesh57
f 307//186 76//186 207//187 
f 341//187 207//187 111//188 
f 308//188 111//188 78//189 
f 309//189 78//189 77//190 
f 77//190 339//190 309//189 
f 78//189 309//189 308//188 
f 111//188 308//188 341//187 
f 207//187 341//187 307//186 
o mesh58
f 76//191 307//191 401//191 
f 401//191 206//191 76//191 
o mesh59
f 410//192 400//193 106//193 
f 310//194 410//192 108//195 
f 402//196 310//194 205//197 
f 401//198 402//196 204//199 
f 204//199 206//198 401//198 
f 205//197 204//199 402//196 
f 108//195 205//197 310//194 
f 106//193 108//195 410//192 
o mesh60
f 106//200 400//200 387//200 
f 387//200 75//200 106//200 
o mesh61
f 386//201 363//202 186//202 
f 387//203 386//201 182//204 
f 182//204 75//203 387//203 
f 186//202 182//204 386//201 
o mesh62
f 186//205 363//205 335//205 
f 335//205 228//205 186//205 
o mesh63
f 388//206 362//207 225//207 
f 335//208 388//206 224//209 
f 224//209 228//208 335//208 
f 225//207 224//209 388//206 
o mesh64
f 225//210 362//210 361//210 
f 361//210 219//210 225//210 
o mesh65
f 399//211 409//212 118//212 
f 361//213 399//211 190//214 
f 190//214 219//213 361//213 
f 118//212 190//214 399//211 
o mesh66
f 118//215 409//215 270//215 
f 270//215 153//215 118//215 
o mesh67
f 269//216 273//217 188//217 
f 270//218 269//216 208//219 
f 208//219 153//218 270//218 
f 188//217 208//219 269//216 
o mesh68
f 188//220 273//220 274//220 
f 274//220 189//220 188//220 
o mesh69
f 332//221 250//222 119//222 
f 333//223 332//221 221//224 
f 246//225 333//223 122//226 
f 274//227 246//225 226//228 
f 226//228 189//227 274//227 
f 122//226 226//228 246//225 
f 221//224 122//226 333//223 
f 119//222 221//224 332//221 
o mesh70
f 119//229 250//229 276//229 
f 276//229 192//229 119//229 
o mesh71
f 232//230 156//230 220//231 
f 233//231 220//231 158//232 
f 234//232 158//232 157//233 
f 249//233 157//233 192//234 
f 192//234 276//234 249//233 
f 157//233 249//233 234//232 
f 158//232 234//232 233//231 
f 220//231 233//231 232//230 
o mesh72
f 156//235 232//235 277//235 
f 277//235 120//235 156//235 
o mesh73
f 306//236 227//236 191//237 
f 278//237 191//237 155//238 
f 251//238 155//238 121//239 
f 252//239 121//239 120//240 
f 120//240 277//240 252//239 
f 121//239 252//239 251//238 
f 155//238 251//238 278//237 
f 191//237 278//237 306//236 
o mesh74
f 227//241 306//241 248//241 
f 248//241 123//241 227//241 
o mesh75
f 244//242 163//242 162//243 
f 245//243 162//243 193//244 
f 275//244 193//244 160//245 
f 247//245 160//245 123//246 
f 123//246 248//246 247//245 
f 160//245 247//245 275//244 
f 193//244 275//244 245//243 
f 162//243 245//243 244//242 
o mesh76
f 163//247 244//247 298//247 
f 298//247 125//247 163//247 
o mesh77
f 299//248 164//248 165//249 
f 265//249 165//249 83//250 
f 266//250 83//250 82//251 
f 267//251 82//251 125//252 
f 125//252 298//252 267//251 
f 82//251 267//251 266//250 
f 83//250 266//250 265//249 
f 165//249 265//249 299//248 
o mesh78
f 164//253 299//253 301//253 
f 301//253 80//253 164//253 
o mesh79
f 300//254 79//254 57//255 
f 303//255 57//255 56//256 
f 330//256 56//256 55//257 
f 302//257 55//257 80//258 
f 80//258 301//258 302//257 
f 55//257 302//257 330//256 
f 56//256 330//256 303//255 
f 57//255 303//255 300//254 
o mesh80
f 79//259 300//259 383//259 
f 383//259 81//259 79//259 
o mesh81
f 385//260 331//261 159//261 
f 272//262 385//260 161//263 
f 384//264 272//262 222//265 
f 383//266 384//264 223//267 
f 223//267 81//266 383//266 
f 222//265 223//267 384//264 
f 161//263 222//265 272//262 
f 159//261 161//263 385//260 
o mesh82
f 159//268 331//268 305//268 
f 305//268 124//268 159//268 
o mesh83
f 304//269 268//270 117//270 
f 305//271 304//269 154//272 
f 154//272 124//271 305//271 
f 117//270 154//272 304//269 
o mesh84
f 117//273 268//273 271//273 
f 271//273 211//273 117//273 
o mesh85
f 243//274 360//275 210//275 
f 271//276 243//274 209//277 
f 209//277 211//276 271//276 
f 210//275 209//277 243//274 
o mesh86
f 210//278 360//278 359//278 
f 359//278 168//278 210//278 
o mesh87
f 381//279 382//280 88//280 
f 359//281 381//279 167//282 
f 167//282 168//281 359//281 
f 88//280 167//282 381//279 
o mesh88
f 88//283 382//283 358//283 
f 358//283 89//283 88//283 
o mesh89
f 380//284 294//285 133//285 
f 358//286 380//284 132//287 
f 132//287 89//286 358//286 
f 133//285 132//287 380//284 
o mesh90
f 133//288 294//288 293//288 
f 293//288 166//288 133//288 
o mesh91
f 328//289 240//290 58//290 
f 329//291 328//289 194//292 
f 295//293 329//291 130//294 
f 293//295 295//293 129//296 
f 129//296 166//295 293//295 
f 130//294 129//296 295//293 
f 194//292 130//294 329//291 
f 58//290 194//292 328//289 
o mesh92
f 58//297 240//297 238//297 
f 238//297 128//297 58//297 
o mesh93
f 239//298 127//298 87//299 
f 229//299 87//299 86//300 
f 230//300 86//300 85//301 
f 231//301 85//301 128//302 
f 128//302 238//302 231//301 
f 85//301 231//301 230//300 
f 86//300 230//300 229//299 
f 87//299 229//299 239//298 
o mesh94
f 127//303 239//303 263//303 
f 263//303 126//303 127//303 
o mesh95
f 297//304 212//304 84//305 
f 241//305 84//305 60//306 
f 242//306 60//306 59//307 
f 264//307 59//307 126//308 
f 126//308 263//308 264//307 
f 59//307 264//307 242//306 
f 60//306 242//306 241//305 
f 84//305 241//305 297//304 
o mesh96
f 212//309 297//309 296//309 
f 296//309 131//309 212//309 
